<svg width="20" height="20" viewBox="0 0 20 20" fill="none" xmlns="http://www.w3.org/2000/svg">
<path d="M8.33333 12.2167V13.5717C8.32693 14.1523 8.0188 14.6877 7.52 14.985C6.46421 15.767 5.83909 17.0012 5.83333 18.315M11.6667 12.2167V13.5717C11.6731 14.1523 11.9812 14.6877 12.48 14.985C13.5358 15.767 14.1609 17.0012 14.1667 18.315M15 7.5H16.25C17.3998 7.5 18.3333 6.56649 18.3333 5.41667C18.3333 4.26684 17.3998 3.33333 16.25 3.33333H15M3.33333 18.3333H16.6667" stroke="#FEE2E2" stroke-width="1.66667" stroke-linecap="round" stroke-linejoin="round"/>
<path d="M5 7.5C5 10.2596 7.24042 12.5 10 12.5C12.7596 12.5 15 10.2596 15 7.5V2.5C15 2.04007 14.6266 1.66667 14.1667 1.66667H5.83333C5.3734 1.66667 5 2.04007 5 2.5M5 7.5H3.75C2.60018 7.5 1.66667 6.56649 1.66667 5.41667C1.66667 4.26684 2.60018 3.33333 3.75 3.33333H5" stroke="#FEE2E2" stroke-width="1.66667" stroke-linecap="round" stroke-linejoin="round"/>
</svg>
