<svg width="21" height="20" viewBox="0 0 21 20" fill="none" xmlns="http://www.w3.org/2000/svg">
<path d="M14.4816 11.6667V1.66667M7.81494 15.1L8.64827 11.6667H3.78994C3.26535 11.6667 2.77137 11.4197 2.45661 11C2.14185 10.5803 2.04305 10.0369 2.18994 9.53333L4.13161 2.86667C4.33902 2.15556 4.99087 1.66667 5.73161 1.66667H16.9816C17.9015 1.66667 18.6483 2.41347 18.6483 3.33333V10C18.6483 10.9199 17.9015 11.6667 16.9816 11.6667H14.6816C14.0492 11.667 13.4714 12.0253 13.1899 12.5917L10.3149 18.3333C9.51881 18.3235 8.77078 17.9505 8.28377 17.3207C7.79676 16.6908 7.6241 15.873 7.81494 15.1" stroke="#9CA3AF" stroke-width="1.66667" stroke-linecap="round" stroke-linejoin="round"/>
</svg>
