<svg width="20" height="20" viewBox="0 0 20 20" fill="none" xmlns="http://www.w3.org/2000/svg">
<path d="M12.5 15H8.33333M15 11.6667H8.33333M3.33333 18.3333H16.6667C17.5865 18.3333 18.3333 17.5865 18.3333 16.6667V3.33333C18.3333 2.41347 17.5865 1.66667 16.6667 1.66667H6.66667C5.74681 1.66667 5 2.41347 5 3.33333V16.6667C5 17.5865 4.25319 18.3333 3.33333 18.3333C2.41347 18.3333 1.66667 17.5865 1.66667 16.6667V9.16667C1.66667 8.24681 2.41347 7.5 3.33333 7.5H5" stroke="#6B7280" stroke-width="1.66667" stroke-linecap="round" stroke-linejoin="round"/>
<path d="M9.16667 5H14.1667C14.6266 5 15 5.3734 15 5.83333V7.5C15 7.95993 14.6266 8.33333 14.1667 8.33333H9.16667C8.70674 8.33333 8.33333 7.95993 8.33333 7.5V5.83333C8.33333 5.3734 8.70674 5 9.16667 5" stroke="#6B7280" stroke-width="1.66667" stroke-linecap="round" stroke-linejoin="round"/>
</svg>
