<svg width="21" height="21" viewBox="0 0 21 21" fill="none" xmlns="http://www.w3.org/2000/svg">
<path d="M2.16667 8.11668C2.1667 6.2183 3.33704 4.51642 5.10967 3.83701C6.88231 3.1576 8.89032 3.6413 10.1592 5.05335C10.2474 5.1477 10.3708 5.20125 10.5 5.20125C10.6292 5.20125 10.7526 5.1477 10.8408 5.05335C12.1059 3.63185 14.1188 3.14188 15.8957 3.82291C17.6726 4.50395 18.8424 6.21377 18.8333 8.11668C18.8333 10.025 17.5833 11.45 16.3333 12.7L11.7567 17.1275C11.4426 17.4883 10.9886 17.6967 10.5102 17.6997C10.0319 17.7027 9.57532 17.5001 9.25667 17.1433L4.66667 12.7C3.41667 11.45 2.16667 10.0333 2.16667 8.11668" stroke="#2563EB" stroke-width="1.66667" stroke-linecap="round" stroke-linejoin="round"/>
</svg>
