<svg width="21" height="21" viewBox="0 0 21 21" fill="none" xmlns="http://www.w3.org/2000/svg">
<path d="M15.5 1.86668C14.1202 1.86668 13 2.98689 13 4.36668C13 5.74647 14.1202 6.86668 15.5 6.86668C16.8798 6.86668 18 5.74647 18 4.36668C18 2.98689 16.8798 1.86668 15.5 1.86668" stroke="#2563EB" stroke-width="1.66667" stroke-linecap="round" stroke-linejoin="round"/>
<path d="M5.5 7.70001C4.12021 7.70001 3 8.82022 3 10.2C3 11.5798 4.12021 12.7 5.5 12.7C6.87979 12.7 8 11.5798 8 10.2C8 8.82022 6.87979 7.70001 5.5 7.70001" stroke="#2563EB" stroke-width="1.66667" stroke-linecap="round" stroke-linejoin="round"/>
<path d="M15.5 13.5333C14.1202 13.5333 13 14.6536 13 16.0333C13 17.4131 14.1202 18.5333 15.5 18.5333C16.8798 18.5333 18 17.4131 18 16.0333C18 14.6536 16.8798 13.5333 15.5 13.5333" stroke="#2563EB" stroke-width="1.66667" stroke-linecap="round" stroke-linejoin="round"/>
<path d="M7.65833 11.4583L13.35 14.775M13.3417 5.62501L7.65833 8.94168" stroke="#2563EB" stroke-width="1.66667" stroke-linecap="round" stroke-linejoin="round"/>
</svg>
