<svg width="17" height="17" viewBox="0 0 17 17" fill="none" xmlns="http://www.w3.org/2000/svg">
<path d="M8.5 2.66003H3.83333C3.09745 2.66003 2.5 3.25748 2.5 3.99337V13.3267C2.5 14.0626 3.09745 14.66 3.83333 14.66H13.1667C13.9026 14.66 14.5 14.0626 14.5 13.3267V8.66003" stroke="#9D00FF" stroke-width="1.33333" stroke-linecap="round" stroke-linejoin="round"/>
<path d="M12.75 2.41003C13.3019 1.85812 14.1981 1.85812 14.75 2.41003C15.3019 2.96195 15.3019 3.85812 14.75 4.41003L8.74133 10.4194C8.58303 10.5775 8.38747 10.6933 8.17267 10.756L6.25733 11.316C6.14049 11.3501 6.01436 11.3178 5.9283 11.2317C5.84223 11.1457 5.80992 11.0195 5.844 10.9027L6.404 8.98737C6.46702 8.77273 6.58302 8.57741 6.74133 8.41937" stroke="#9D00FF" stroke-width="1.33333" stroke-linecap="round" stroke-linejoin="round"/>
</svg>
