<svg width="15" height="15" viewBox="0 0 15 15" fill="none" xmlns="http://www.w3.org/2000/svg">
<path d="M7.19789 1.83875C7.25004 1.7334 7.35742 1.66673 7.47498 1.66673C7.59253 1.66673 7.69991 1.7334 7.75206 1.83875L9.09956 4.56817C9.27951 4.93303 9.62741 5.18605 10.03 5.24483L13.0435 5.68583C13.16 5.70271 13.2568 5.78426 13.2932 5.89619C13.3296 6.00811 13.2992 6.131 13.215 6.21317L11.0356 8.33533C10.7436 8.61949 10.6103 9.02925 10.6792 9.43083L11.1937 12.4292C11.2143 12.5456 11.1666 12.6636 11.071 12.7331C10.9753 12.8026 10.8484 12.8114 10.744 12.7558L8.05014 11.3395C7.68988 11.1501 7.25949 11.1501 6.89923 11.3395L4.20598 12.7558C4.10164 12.8111 3.97496 12.8021 3.87948 12.7326C3.78401 12.6632 3.73641 12.5454 3.75681 12.4292L4.27073 9.43142C4.33985 9.02964 4.20652 8.61961 3.91431 8.33533L1.73498 6.21375C1.64999 6.13167 1.61922 6.00833 1.65569 5.89594C1.69216 5.78356 1.78949 5.70179 1.90648 5.68525L4.91939 5.24483C5.32239 5.18641 5.67079 4.93334 5.85098 4.56817" stroke="#EF4444" stroke-width="1.16667" stroke-linecap="round" stroke-linejoin="round"/>
</svg>
