<svg width="134" height="40" viewBox="0 0 134 40" fill="none" xmlns="http://www.w3.org/2000/svg">
<rect x="0.709961" y="0.160004" width="132.81" height="39" rx="8" fill="#E5E7EB"/>
<path d="M28.71 12.16H24.0433C23.3074 12.16 22.71 12.7575 22.71 13.4933V22.8267C22.71 23.5626 23.3074 24.16 24.0433 24.16H33.3766C34.1125 24.16 34.71 23.5626 34.71 22.8267V18.16" stroke="#9CA3AF" stroke-width="1.33333" stroke-linecap="round" stroke-linejoin="round"/>
<path d="M32.96 11.91C33.5119 11.3581 34.408 11.3581 34.96 11.91C35.5119 12.4619 35.5119 13.3581 34.96 13.91L28.9513 19.9193C28.793 20.0775 28.5974 20.1933 28.3826 20.256L26.4673 20.816C26.3505 20.8501 26.2243 20.8178 26.1383 20.7317C26.0522 20.6456 26.0199 20.5195 26.054 20.4027L26.614 18.4873C26.677 18.2727 26.793 18.0774 26.9513 17.9193" stroke="#9CA3AF" stroke-width="1.33333" stroke-linecap="round" stroke-linejoin="round"/>
<path d="M41.2618 26.16V15.9745H47.8773V17.5117H43.0872V20.2581H47.5251V21.7757H43.0872V24.6228H47.9068V26.16H41.2618ZM52.4743 26.2995C51.8737 26.2995 51.3349 26.1446 50.8579 25.835C50.381 25.5254 50.0057 25.0768 49.7323 24.4893C49.4589 23.9018 49.3222 23.1901 49.3222 22.3543C49.3222 21.505 49.4621 20.7877 49.7419 20.2025C50.0217 19.6172 50.3997 19.1741 50.8758 18.8732C51.352 18.5722 51.883 18.4217 52.4689 18.4217C52.923 18.4217 53.2946 18.4976 53.5838 18.6494C53.873 18.8011 54.1028 18.9827 54.2732 19.1942C54.4435 19.4056 54.5722 19.6019 54.6591 19.7829H54.7351V15.9745H56.5119V26.16H54.7712V24.9503H54.6591C54.5689 25.1342 54.4367 25.3305 54.2626 25.5392C54.0885 25.7478 53.8574 25.9267 53.5692 26.0758C53.281 26.2249 52.916 26.2995 52.4743 26.2995ZM52.9567 24.8371C53.3444 24.8371 53.6732 24.7324 53.943 24.5231C54.2128 24.3137 54.4178 24.0221 54.5581 23.6482C54.6983 23.2743 54.7685 22.8401 54.7685 22.3456C54.7685 21.8477 54.6991 21.4151 54.5603 21.0477C54.4214 20.6803 54.2171 20.3945 53.9473 20.1903C53.6776 19.9861 53.3473 19.8841 52.9567 19.8841C52.5573 19.8841 52.2228 19.9905 51.9532 20.2034C51.6835 20.4163 51.4809 20.708 51.3452 21.0783C51.2094 21.4486 51.1416 21.871 51.1416 22.3456C51.1416 22.8213 51.2102 23.2473 51.3473 23.6235C51.4845 23.9996 51.6886 24.2959 51.9597 24.5124C52.2308 24.7289 52.5631 24.8371 52.9567 24.8371ZM58.3932 26.16V18.5174H60.1699V26.16H58.3932ZM59.2835 17.4363C59.0002 17.4363 58.757 17.3409 58.5539 17.1501C58.3509 16.9593 58.2493 16.7304 58.2493 16.4634C58.2493 16.1908 58.3509 15.9604 58.5539 15.772C58.757 15.5836 59.0002 15.4894 59.2835 15.4894C59.5692 15.4894 59.8137 15.5835 60.017 15.7717C60.2203 15.9599 60.322 16.1904 60.322 16.4632C60.322 16.7306 60.2203 16.9596 60.017 17.1502C59.8137 17.3409 59.5692 17.4363 59.2835 17.4363ZM65.5917 18.5174V19.9098H61.2517V18.5174H65.5917ZM62.3361 16.6991H64.1129V24.0078C64.1129 24.284 64.1722 24.4867 64.2906 24.6161C64.4091 24.7454 64.6047 24.8101 64.8774 24.8101C64.9566 24.8101 65.0631 24.8005 65.197 24.7815C65.3309 24.7624 65.4389 24.7438 65.5211 24.7256L65.8011 26.0968C65.6063 26.1572 65.407 26.2 65.2034 26.2252C64.9998 26.2505 64.8026 26.2631 64.6119 26.2631C63.8806 26.2631 63.3185 26.081 62.9255 25.7168C62.5326 25.3525 62.3361 24.8337 62.3361 24.1601V16.6991ZM70.6084 26.16V15.9745H74.4196C75.1994 15.9745 75.8556 16.1208 76.3879 16.4135C76.9203 16.7061 77.323 17.1061 77.596 17.6134C77.869 18.1208 78.0055 18.6988 78.0055 19.3476C78.0055 19.998 77.8677 20.5763 77.5923 21.0824C77.3169 21.5885 76.9108 21.987 76.3741 22.2779C75.8375 22.5687 75.1759 22.7141 74.3895 22.7141H71.8652V21.2108H74.1484C74.6107 21.2108 74.9886 21.1308 75.2823 20.9709C75.576 20.8109 75.7924 20.5904 75.9315 20.3093C76.0705 20.0282 76.1401 19.7076 76.1401 19.3476C76.1401 18.9843 76.0705 18.6639 75.9315 18.3866C75.7924 18.1092 75.5753 17.8925 75.2801 17.7365C74.985 17.5804 74.6048 17.5024 74.1396 17.5024H72.4339V26.16H70.6084ZM79.5572 26.16V18.5174H81.2782V19.7966H81.3603C81.4999 19.3534 81.7402 19.012 82.0812 18.7724C82.4222 18.5328 82.8115 18.413 83.2492 18.413C83.3502 18.413 83.4621 18.4177 83.5849 18.4272C83.7078 18.4367 83.8123 18.4494 83.8983 18.4655V20.099C83.8258 20.0751 83.7071 20.0536 83.5424 20.0346C83.3777 20.0155 83.2175 20.006 83.0616 20.006C82.7315 20.006 82.4352 20.0766 82.1729 20.2178C81.9106 20.359 81.7052 20.5538 81.5567 20.8024C81.4082 21.0509 81.334 21.3386 81.334 21.6652V26.16H79.5572ZM88.1243 26.3142C87.3824 26.3142 86.7378 26.1498 86.1905 25.8208C85.6433 25.4919 85.2202 25.0316 84.9211 24.4399C84.6221 23.8483 84.4725 23.1606 84.4725 22.3767C84.4725 21.5841 84.6221 20.8913 84.9211 20.2982C85.2202 19.7051 85.6433 19.2441 86.1905 18.9151C86.7378 18.5862 87.3824 18.4217 88.1243 18.4217C88.8691 18.4217 89.5151 18.5862 90.0621 18.9151C90.6092 19.2441 91.0323 19.7051 91.3313 20.2982C91.6304 20.8913 91.7799 21.5841 91.7799 22.3767C91.7799 23.1606 91.6304 23.8483 91.3313 24.4399C91.0323 25.0316 90.6092 25.4919 90.0621 25.8208C89.5151 26.1498 88.8691 26.3142 88.1243 26.3142ZM88.1243 24.8716C88.5392 24.8716 88.8839 24.7599 89.1583 24.5366C89.4328 24.3133 89.6374 24.0126 89.7723 23.6344C89.9072 23.2562 89.9747 22.8354 89.9747 22.3718C89.9747 21.9037 89.9072 21.4803 89.7723 21.1017C89.6374 20.7231 89.4328 20.4222 89.1583 20.1991C88.8839 19.9759 88.5392 19.8644 88.1243 19.8644C87.7107 19.8644 87.3677 19.9759 87.0953 20.1991C86.823 20.4222 86.6194 20.7223 86.4845 21.0995C86.3496 21.4767 86.2821 21.9008 86.2821 22.3718C86.2821 22.8354 86.3496 23.2562 86.4845 23.6344C86.6194 24.0126 86.823 24.3133 87.0953 24.5366C87.3677 24.7599 87.7107 24.8716 88.1243 24.8716ZM97.3514 18.5174V19.9098H92.5261V18.5174H97.3514ZM93.9266 26.16V17.7868C93.9266 17.2775 94.0332 16.8534 94.2463 16.5145C94.4594 16.1756 94.7462 15.9211 95.1068 15.7511C95.4674 15.581 95.8659 15.4959 96.3023 15.4959C96.6153 15.4959 96.8925 15.5211 97.1339 15.5714C97.3754 15.6217 97.5531 15.6666 97.6673 15.7059L97.3058 17.0884C97.2288 17.064 97.1342 17.0398 97.0218 17.0157C96.9094 16.9916 96.7789 16.9796 96.6304 16.9796C96.2964 16.9796 96.0576 17.0613 95.914 17.2246C95.7703 17.3879 95.6985 17.6206 95.6985 17.9224V26.16H93.9266ZM98.8551 26.16V18.5174H100.632V26.16H98.8551ZM99.7454 17.4363C99.4621 17.4363 99.2189 17.3409 99.0159 17.1501C98.8128 16.9593 98.7112 16.7304 98.7112 16.4634C98.7112 16.1908 98.8128 15.9604 99.0159 15.772C99.2189 15.5836 99.4621 15.4894 99.7454 15.4894C100.031 15.4894 100.276 15.5835 100.479 15.7717C100.682 15.9599 100.784 16.1904 100.784 16.4632C100.784 16.7306 100.682 16.9596 100.479 17.1502C100.276 17.3409 100.031 17.4363 99.7454 17.4363ZM104.296 15.9745V26.16H102.519V15.9745H104.296ZM109.559 26.3142C108.792 26.3142 108.132 26.153 107.577 25.8306C107.021 25.5083 106.595 25.0531 106.296 24.4652C105.998 23.8773 105.849 23.1841 105.849 22.3855C105.849 21.6 105.996 20.91 106.291 20.3154C106.586 19.7209 107.003 19.2566 107.542 18.9227C108.082 18.5887 108.715 18.4217 109.442 18.4217C109.91 18.4217 110.354 18.4971 110.775 18.648C111.195 18.7988 111.568 19.0309 111.893 19.3442C112.219 19.6574 112.475 20.0571 112.661 20.543C112.848 21.029 112.941 21.608 112.941 22.2799V22.8345H106.687V21.6281H112.054L111.224 21.9863C111.224 21.5539 111.157 21.1748 111.024 20.8492C110.89 20.5235 110.692 20.2698 110.43 20.0882C110.168 19.9065 109.842 19.8157 109.452 19.8157C109.062 19.8157 108.73 19.908 108.456 20.0926C108.182 20.2771 107.973 20.5235 107.83 20.8317C107.686 21.1398 107.614 21.4824 107.614 21.8594V22.695C107.614 23.1781 107.696 23.5855 107.86 23.9174C108.024 24.2493 108.255 24.4994 108.551 24.6677C108.848 24.8361 109.192 24.9203 109.583 24.9203C109.842 24.9203 110.078 24.8831 110.291 24.8088C110.503 24.7345 110.686 24.6236 110.839 24.476C110.992 24.3285 111.109 24.1461 111.19 23.929L112.823 24.267C112.701 24.6761 112.491 25.0342 112.194 25.3415C111.897 25.6487 111.526 25.8877 111.081 26.0583C110.636 26.2289 110.129 26.3142 109.559 26.3142Z" fill="#9CA3AF"/>
</svg>
