<svg width="104" height="40" viewBox="0 0 104 40" fill="none" xmlns="http://www.w3.org/2000/svg">
<rect x="0.47998" y="0.160004" width="103.23" height="39" rx="8" fill="#9D00FF"/>
<path d="M31.1466 24.16V22.8267C31.1466 21.3549 29.9518 20.16 28.48 20.16H24.48C23.0082 20.16 21.8133 21.3549 21.8133 22.8267V24.16" stroke="white" stroke-width="1.33333" stroke-linecap="round" stroke-linejoin="round"/>
<path d="M26.48 12.16C25.0082 12.16 23.8133 13.3549 23.8133 14.8267C23.8133 16.2984 25.0082 17.4933 26.48 17.4933C27.9518 17.4933 29.1466 16.2984 29.1466 14.8267C29.1466 13.3549 27.9518 12.16 26.48 12.16" stroke="white" stroke-width="1.33333" stroke-linecap="round" stroke-linejoin="round"/>
<path d="M33.1466 15.4933V19.4933M35.1466 17.4933H31.1466" stroke="white" stroke-width="1.33333" stroke-linecap="round" stroke-linejoin="round"/>
<path d="M41.0348 26.16V15.9745H47.5557V17.5117H42.8602V20.5698H47.1007V22.0874H42.8602V26.16H41.0348ZM52.0496 26.3142C51.3077 26.3142 50.6631 26.1498 50.1159 25.8208C49.5686 25.4919 49.1455 25.0316 48.8465 24.4399C48.5474 23.8483 48.3979 23.1606 48.3979 22.3767C48.3979 21.5841 48.5474 20.8913 48.8465 20.2982C49.1455 19.7051 49.5686 19.2441 50.1159 18.9151C50.6631 18.5862 51.3077 18.4217 52.0496 18.4217C52.7945 18.4217 53.4404 18.5862 53.9875 18.9151C54.5345 19.2441 54.9576 19.7051 55.2566 20.2982C55.5557 20.8913 55.7052 21.5841 55.7052 22.3767C55.7052 23.1606 55.5557 23.8483 55.2566 24.4399C54.9576 25.0316 54.5345 25.4919 53.9875 25.8208C53.4404 26.1498 52.7945 26.3142 52.0496 26.3142ZM52.0496 24.8716C52.4645 24.8716 52.8092 24.7599 53.0836 24.5366C53.3581 24.3133 53.5628 24.0126 53.6977 23.6344C53.8325 23.2562 53.9 22.8354 53.9 22.3718C53.9 21.9037 53.8325 21.4803 53.6977 21.1017C53.5628 20.7231 53.3581 20.4222 53.0836 20.1991C52.8092 19.9759 52.4645 19.8644 52.0496 19.8644C51.636 19.8644 51.293 19.9759 51.0207 20.1991C50.7483 20.4222 50.5447 20.7223 50.4098 21.0995C50.2749 21.4767 50.2075 21.9008 50.2075 22.3718C50.2075 22.8354 50.2749 23.2562 50.4098 23.6344C50.5447 24.0126 50.7483 24.3133 51.0207 24.5366C51.293 24.7599 51.636 24.8716 52.0496 24.8716ZM59.0338 15.9745V26.16H57.257V15.9745H59.0338ZM62.6978 15.9745V26.16H60.921V15.9745H62.6978ZM67.9022 26.3142C67.1602 26.3142 66.5157 26.1498 65.9684 25.8208C65.4212 25.4919 64.998 25.0316 64.699 24.4399C64.3999 23.8483 64.2504 23.1606 64.2504 22.3767C64.2504 21.5841 64.3999 20.8913 64.699 20.2982C64.998 19.7051 65.4212 19.2441 65.9684 18.9151C66.5157 18.5862 67.1602 18.4217 67.9022 18.4217C68.647 18.4217 69.293 18.5862 69.84 18.9151C70.3871 19.2441 70.8101 19.7051 71.1092 20.2982C71.4082 20.8913 71.5578 21.5841 71.5578 22.3767C71.5578 23.1606 71.4082 23.8483 71.1092 24.4399C70.8101 25.0316 70.3871 25.4919 69.84 25.8208C69.293 26.1498 68.647 26.3142 67.9022 26.3142ZM67.9022 24.8716C68.3171 24.8716 68.6617 24.7599 68.9362 24.5366C69.2106 24.3133 69.4153 24.0126 69.5502 23.6344C69.6851 23.2562 69.7525 22.8354 69.7525 22.3718C69.7525 21.9037 69.6851 21.4803 69.5502 21.1017C69.4153 20.7231 69.2106 20.4222 68.9362 20.1991C68.6617 19.9759 68.3171 19.8644 67.9022 19.8644C67.4885 19.8644 67.1456 19.9759 66.8732 20.1991C66.6009 20.4222 66.3972 20.7223 66.2623 21.0995C66.1274 21.4767 66.06 21.9008 66.06 22.3718C66.06 22.8354 66.1274 23.2562 66.2623 23.6344C66.3972 24.0126 66.6009 24.3133 66.8732 24.5366C67.1456 24.7599 67.4885 24.8716 67.9022 24.8716ZM74.5322 26.16L72.2567 18.5174H74.1259L74.8784 21.5138C74.9961 22.0023 75.1234 22.541 75.2602 23.1298C75.397 23.7186 75.5262 24.3743 75.6478 25.0969H75.4211C75.5464 24.3947 75.6796 23.7481 75.8209 23.157C75.9622 22.5659 76.0956 22.0182 76.2212 21.5138L76.9921 18.5174H78.6884L79.4407 21.5138C79.5617 22.0111 79.6926 22.5541 79.8332 23.1429C79.9738 23.7317 80.1068 24.383 80.232 25.0969H80.0059C80.1287 24.3889 80.2558 23.7405 80.3871 23.1517C80.5183 22.5629 80.6443 22.0169 80.7649 21.5138L81.5174 18.5174H83.4063L81.121 26.16H79.3239L78.4287 23.0406C78.3399 22.7291 78.2522 22.3931 78.1655 22.0326C78.0788 21.6721 77.9944 21.3041 77.9123 20.9287C77.8302 20.5533 77.7462 20.1919 77.6603 19.8447H77.9928C77.9115 20.189 77.8287 20.5496 77.7443 20.9265C77.6599 21.3034 77.5747 21.6736 77.4889 22.037C77.403 22.4004 77.3149 22.7349 77.2245 23.0406L76.3292 26.16H74.5322Z" fill="white"/>
</svg>
