<svg width="21" height="20" viewBox="0 0 21 20" fill="none" xmlns="http://www.w3.org/2000/svg">
<path d="M2.14164 7.91667C2.14168 6.01829 3.31201 4.31641 5.08465 3.637C6.85729 2.95759 8.8653 3.44129 10.1341 4.85333C10.2224 4.94769 10.3458 5.00124 10.475 5.00124C10.6042 5.00124 10.7276 4.94769 10.8158 4.85333C12.0809 3.43184 14.0938 2.94187 15.8707 3.6229C17.6476 4.30394 18.8174 6.01376 18.8083 7.91667C18.8083 9.825 17.5583 11.25 16.3083 12.5L11.7316 16.9275C11.4175 17.2883 10.9636 17.4967 10.4852 17.4997C10.0069 17.5027 9.5503 17.3001 9.23164 16.9433L4.64164 12.5C3.39164 11.25 2.14164 9.83333 2.14164 7.91667" stroke="#9CA3AF" stroke-width="1.66667" stroke-linecap="round" stroke-linejoin="round"/>
</svg>
