<svg width="21" height="20" viewBox="0 0 21 20" fill="none" xmlns="http://www.w3.org/2000/svg">
<path d="M15.6849 1.66667C14.3051 1.66667 13.1849 2.78688 13.1849 4.16667C13.1849 5.54645 14.3051 6.66667 15.6849 6.66667C17.0647 6.66667 18.1849 5.54645 18.1849 4.16667C18.1849 2.78688 17.0647 1.66667 15.6849 1.66667" stroke="#9CA3AF" stroke-width="1.66667" stroke-linecap="round" stroke-linejoin="round"/>
<path d="M5.68494 7.5C4.30515 7.5 3.18494 8.62021 3.18494 10C3.18494 11.3798 4.30515 12.5 5.68494 12.5C7.06472 12.5 8.18494 11.3798 8.18494 10C8.18494 8.62021 7.06472 7.5 5.68494 7.5" stroke="#9CA3AF" stroke-width="1.66667" stroke-linecap="round" stroke-linejoin="round"/>
<path d="M15.6849 13.3333C14.3051 13.3333 13.1849 14.4535 13.1849 15.8333C13.1849 17.2131 14.3051 18.3333 15.6849 18.3333C17.0647 18.3333 18.1849 17.2131 18.1849 15.8333C18.1849 14.4535 17.0647 13.3333 15.6849 13.3333" stroke="#9CA3AF" stroke-width="1.66667" stroke-linecap="round" stroke-linejoin="round"/>
<path d="M7.84327 11.2583L13.5349 14.575M13.5266 5.425L7.84327 8.74167" stroke="#9CA3AF" stroke-width="1.66667" stroke-linecap="round" stroke-linejoin="round"/>
</svg>
